<svg width="14" height="14" viewBox="0 0 14 14" fill="none" xmlns="http://www.w3.org/2000/svg">
<g clip-path="url(#clip0_7_85)">
<path d="M10.5 0H3.5C2.57259 0.00276977 1.68396 0.372408 1.02819 1.02819C0.372408 1.68396 0.00276977 2.57259 0 3.5L0 10.5C0.00276977 11.4274 0.372408 12.316 1.02819 12.9718C1.68396 13.6276 2.57259 13.9972 3.5 14H10.5C11.4274 13.9972 12.316 13.6276 12.9718 12.9718C13.6276 12.316 13.9972 11.4274 14 10.5V3.5C13.9972 2.57259 13.6276 1.68396 12.9718 1.02819C12.316 0.372408 11.4274 0.00276977 10.5 0V0ZM7 9.91638C6.4232 9.91638 5.85934 9.74533 5.37975 9.42488C4.90015 9.10442 4.52635 8.64895 4.30562 8.11605C4.08489 7.58315 4.02713 6.99676 4.13966 6.43104C4.25219 5.86532 4.52995 5.34567 4.93781 4.93781C5.34567 4.52995 5.86532 4.25219 6.43104 4.13966C6.99676 4.02713 7.58315 4.08489 8.11605 4.30562C8.64895 4.52635 9.10442 4.90015 9.42488 5.37975C9.74533 5.85934 9.91638 6.4232 9.91638 7C9.91638 7.77347 9.60911 8.51526 9.06219 9.06219C8.51526 9.60911 7.77347 9.91638 7 9.91638ZM10.7914 4.08275C10.6183 4.08275 10.4491 4.03143 10.3053 3.93529C10.1614 3.83914 10.0492 3.70248 9.98298 3.5426C9.91675 3.38271 9.89943 3.20678 9.93319 3.03705C9.96695 2.86731 10.0503 2.7114 10.1727 2.58903C10.295 2.46666 10.4509 2.38332 10.6207 2.34956C10.7904 2.3158 10.9663 2.33313 11.1262 2.39936C11.2861 2.46558 11.4228 2.57773 11.5189 2.72163C11.6151 2.86552 11.6664 3.03469 11.6664 3.20775C11.6665 3.32273 11.6439 3.43661 11.6 3.54287C11.5561 3.64913 11.4917 3.74569 11.4104 3.82703C11.3291 3.90838 11.2326 3.97291 11.1264 4.01694C11.0202 4.06096 10.9064 4.08362 10.7914 4.08362V4.08275Z" fill="white" fill-opacity="0.5"/>
</g>
<defs>
<clipPath id="clip0_7_85">
<rect width="14" height="14" fill="white"/>
</clipPath>
</defs>
</svg>
