<svg width="15" height="15" viewBox="0 0 15 15" fill="none" xmlns="http://www.w3.org/2000/svg">
<g clip-path="url(#clip0_7_88)">
<path d="M14.8014 14.7991V9.67156C14.8014 7.15156 14.2589 5.22656 11.3189 5.22656C9.90141 5.22656 8.95641 5.99656 8.57141 6.73156H8.53641V5.45406H5.75391V14.7991H8.65891V10.1616C8.65891 8.93656 8.88641 7.76406 10.3914 7.76406C11.8789 7.76406 11.8964 9.14656 11.8964 10.2316V14.7816H14.8014V14.7991Z" fill="white" fill-opacity="0.5"/>
<path d="M1.02734 5.45508H3.93234V14.8001H1.02734V5.45508Z" fill="white" fill-opacity="0.5"/>
<path d="M2.48078 0.799805C1.55328 0.799805 0.800781 1.5523 0.800781 2.47981C0.800781 3.40731 1.55328 4.17731 2.48078 4.17731C3.40828 4.17731 4.16078 3.40731 4.16078 2.47981C4.16078 1.5523 3.40828 0.799805 2.48078 0.799805Z" fill="white" fill-opacity="0.5"/>
</g>
<defs>
<clipPath id="clip0_7_88">
<rect width="15" height="15" fill="white"/>
</clipPath>
</defs>
</svg>
