<svg width="30" height="30" viewBox="0 0 30 30" fill="none" xmlns="http://www.w3.org/2000/svg">
<g clip-path="url(#clip0_87_116)">
<path d="M5 11.875C5 13.6984 5.72433 15.447 7.01364 16.7364C8.30295 18.0257 10.0516 18.75 11.875 18.75C13.6984 18.75 15.447 18.0257 16.7364 16.7364C18.0257 15.447 18.75 13.6984 18.75 11.875C18.75 10.0516 18.0257 8.30295 16.7364 7.01364C15.447 5.72433 13.6984 5 11.875 5C10.0516 5 8.30295 5.72433 7.01364 7.01364C5.72433 8.30295 5 10.0516 5 11.875Z" stroke="black" stroke-width="2" stroke-linecap="round" stroke-linejoin="round"/>
<path d="M11.25 18.125C11.25 19.9484 11.9743 21.697 13.2636 22.9864C14.553 24.2757 16.3016 25 18.125 25C19.9484 25 21.697 24.2757 22.9864 22.9864C24.2757 21.697 25 19.9484 25 18.125C25 16.3016 24.2757 14.553 22.9864 13.2636C21.697 11.9743 19.9484 11.25 18.125 11.25C16.3016 11.25 14.553 11.9743 13.2636 13.2636C11.9743 14.553 11.25 16.3016 11.25 18.125Z" stroke="black" stroke-width="2" stroke-linecap="round" stroke-linejoin="round"/>
</g>
<defs>
<clipPath id="clip0_87_116">
<rect width="30" height="30" fill="white"/>
</clipPath>
</defs>
</svg>
