<svg width="20" height="20" viewBox="0 0 20 20" fill="none" xmlns="http://www.w3.org/2000/svg">
<g clip-path="url(#clip0_87_97)">
<path d="M7.5 12.5L12.5 7.5" stroke="#F3D333" stroke-width="2" stroke-linecap="round" stroke-linejoin="round"/>
<path d="M9.1665 4.99993L9.55234 4.55326C10.3338 3.77187 11.3937 3.33293 12.4989 3.33301C13.604 3.33309 14.6639 3.77217 15.4453 4.55368C16.2266 5.33518 16.6656 6.39509 16.6655 7.50022C16.6654 8.60536 16.2263 9.6652 15.4448 10.4466L14.9998 10.8333" stroke="#F3D333" stroke-width="2" stroke-linecap="round" stroke-linejoin="round"/>
<path d="M10.8331 15.0001L10.5023 15.4451C9.71167 16.2269 8.64462 16.6654 7.53271 16.6654C6.4208 16.6654 5.35375 16.2269 4.56313 15.4451C4.17342 15.0597 3.86404 14.6009 3.65289 14.0952C3.44173 13.5895 3.33301 13.0469 3.33301 12.4988C3.33301 11.9508 3.44173 11.4082 3.65289 10.9025C3.86404 10.3967 4.17342 9.93791 4.56313 9.55258L4.99979 9.16675" stroke="#F3D333" stroke-width="2" stroke-linecap="round" stroke-linejoin="round"/>
</g>
<defs>
<clipPath id="clip0_87_97">
<rect width="20" height="20" fill="white"/>
</clipPath>
</defs>
</svg>
