<svg width="32" height="32" viewBox="0 0 32 32" fill="none" xmlns="http://www.w3.org/2000/svg">
<path d="M13.5428 14.424C14.0967 13.5619 14.413 12.5333 14.3947 11.4306C14.3457 8.47975 11.8899 6.13477 8.93857 6.13477H0.698852C0.31292 6.13477 0 6.44769 0 6.83362V24.9537C0 25.3397 0.31292 25.6526 0.698852 25.6526H9.90295C13.3191 25.6526 16.1489 22.9146 16.1629 19.4984C16.1715 17.4048 15.1332 15.5486 13.5428 14.424ZM3.61481 9.74958H9.00893C9.9858 9.74958 10.7806 10.5443 10.7806 11.5213C10.7806 12.4981 9.98587 13.293 9.00893 13.293H3.61481V9.74958ZM9.98322 22.0378H3.61481V16.9078H9.00893H9.98315C11.3975 16.9078 12.5481 18.0585 12.5481 19.4728C12.5481 20.8871 11.3975 22.0378 9.98322 22.0378Z" fill="#0067FF"/>
<path d="M32 18.2134C32 13.9941 28.6745 10.5615 24.5869 10.5615C20.4992 10.5615 17.1737 13.9942 17.1737 18.2134C17.1737 22.4326 20.4993 25.8653 24.5869 25.8653C27.0672 25.8653 29.3719 24.5938 30.752 22.4639C30.9241 22.1984 31.0804 21.9209 31.2191 21.635C31.3197 21.4274 31.167 21.1858 30.9362 21.1852L27.2922 21.1762C27.2115 21.176 27.1351 21.2089 27.0773 21.2651C26.3892 21.9341 25.5456 22.2504 24.5869 22.2504C22.7759 22.2504 21.2578 20.8959 20.8798 19.0902H31.2745C31.6752 19.0902 32 18.7654 32 18.3648V18.2134ZM24.5869 14.1763C25.9132 14.1763 27.0823 14.9032 27.7619 16.0013H21.4119C22.0915 14.9032 23.2606 14.1763 24.5869 14.1763Z" fill="#0067FF"/>
<path d="M27.6672 9.66339H21.0921C20.7854 9.66339 20.5367 9.41469 20.5367 9.10791V7.45843C20.5367 7.15166 20.7854 6.90295 21.0921 6.90295H27.6672C27.974 6.90295 28.2227 7.15166 28.2227 7.45843V9.10791C28.2227 9.41476 27.974 9.66339 27.6672 9.66339Z" fill="#0067FF"/>
</svg>
