<svg width="32" height="32" viewBox="0 0 32 32" fill="none" xmlns="http://www.w3.org/2000/svg">
<path d="M12.9398 17.6531C12.8394 17.6531 10.7315 17.6538 9.75936 17.6528C9.25888 17.6525 9.08032 17.4727 9.08032 16.969C9.07968 15.6752 9.07936 14.3815 9.08032 13.0877C9.08064 12.5904 9.26944 12.4007 9.76352 12.4003C10.7357 12.3997 12.832 12.4 12.9398 12.4C12.9398 12.3114 12.9395 10.4435 12.9398 9.58339C12.9405 8.31171 13.1674 7.09443 13.8134 5.97987C14.4749 4.83907 15.4374 4.05763 16.671 3.60579C17.4611 3.31619 18.2813 3.20067 19.1197 3.20003C20.1686 3.19939 21.2176 3.20035 22.2669 3.20227C22.7178 3.20291 22.9178 3.40227 22.9187 3.85635C22.9206 5.07331 22.9206 6.29027 22.9187 7.50691C22.9181 7.96579 22.7264 8.15011 22.2653 8.15523C21.4054 8.16451 20.545 8.15875 19.6861 8.19331C18.8186 8.19331 18.3622 8.61699 18.3622 9.51491C18.3414 10.4647 18.3536 11.4154 18.3536 12.3997C18.4349 12.3997 20.9037 12.3994 22.0576 12.3997C22.5818 12.3997 22.761 12.5799 22.761 13.1069C22.761 14.3936 22.7606 15.6807 22.7597 16.9674C22.7594 17.4867 22.591 17.6525 22.0637 17.6528C20.9098 17.6535 18.4506 17.6531 18.343 17.6531V28.0675C18.343 28.6227 18.1683 28.7997 17.6205 28.7997C16.2848 28.7997 14.9488 28.8 13.6131 28.7997C13.129 28.7997 12.9402 28.6115 12.9402 28.1274C12.9398 24.7357 12.9398 17.7722 12.9398 17.6531Z" fill="#3D6AD6"/>
</svg>
