<svg width="962" height="596" viewBox="0 0 962 596" fill="none" xmlns="http://www.w3.org/2000/svg">
<path d="M956.483 23.2028C965.193 38.2896 960.733 60.3905 944.456 87.7941C928.228 115.116 900.456 147.355 863.292 182.436C788.976 252.586 677.269 333.941 545.785 409.853C414.301 485.765 287.992 541.829 190.082 571.114C141.12 585.759 99.3139 593.69 67.5381 594.083C35.6676 594.477 14.2975 587.29 5.58716 572.203C-3.12316 557.116 1.33713 535.015 17.6138 507.612C33.842 480.29 61.6138 448.05 98.778 412.97C173.094 342.82 284.801 261.465 416.285 185.553C547.769 109.64 674.078 53.5771 771.988 24.2919C820.95 9.64704 862.756 1.71563 894.532 1.32255C926.403 0.928384 947.773 8.11612 956.483 23.2028Z" stroke="white" stroke-opacity="0.14" stroke-width="2"/>
</svg>
